Coordinates
version=1
nRows=13
nColumns=36
inDegrees=yes

Units are S.I. units (second, meters, Newtons, ...)
If the header above contains a line with 'inDegrees', this indicates whether rotational values are in degrees (yes) or radians (no).

endheader
time	pelvis_tilt	pelvis_list	pelvis_rotation	pelvis_tx	pelvis_ty	pelvis_tz	hip_flexion_r	hip_adduction_r	hip_rotation_r	knee_angle_r	knee_angle_r_beta	ankle_angle_r	subtalar_angle_r	mtp_angle_r	hip_flexion_l	hip_adduction_l	hip_rotation_l	knee_angle_l	knee_angle_l_beta	ankle_angle_l	subtalar_angle_l	mtp_angle_l	lumbar_extension	lumbar_bending	lumbar_rotation	arm_flex_r	arm_add_r	arm_rot_r	elbow_flex_r	pro_sup_r	arm_flex_l	arm_add_l	arm_rot_l	elbow_flex_l	pro_sup_l
      0.00000000	     -1.03551146	      1.68645071	      1.53396490	     -0.13256188	      0.90872853	     -0.28176298	     25.60531028	      0.72184899	     -8.60255304	      2.27312389	      0.03967350	     10.44013475	      5.30990935	     -5.55217608	    -15.76792353	      5.05134512	      0.88967864	      5.69821961	      0.09945269	     19.20350370	     11.48015478	     -5.55217608	     -7.19316560	     -0.44275435	    -10.84020878	    -15.67042092	     -4.76436194	    -20.34147649	     23.82890670	     95.54797054	      9.27111637	    -12.45897727	    -14.71216296	     59.00456781	     95.88837744
      0.01000000	     -0.75611231	      1.18608140	      1.68768071	     -0.11777602	      0.90734169	     -0.28121639	     25.16077434	      1.33573171	     -9.07705012	      3.26085586	      0.05691267	      9.17234909	      3.76461208	     -5.58346952	    -16.70844921	      4.36636326	      0.62654652	      6.33216034	      0.11051705	     18.55997307	     11.10564677	     -5.58346952	     -7.31844160	      0.17952443	    -10.82292996	    -15.77604783	     -4.94966885	    -20.20657542	     23.55430635	     95.82917279	      8.96038421	    -12.37756724	    -14.41067062	     59.65144758	     96.19995363
      0.02000000	     -0.75911261	      0.68131584	      1.80569433	     -0.10302198	      0.90561673	     -0.28051210	     24.90073599	      2.04395659	     -8.59087918	      3.95724051	      0.06906688	      7.07447758	      0.70769958	     -5.67475359	    -17.30202432	      3.68922910	      0.56058746	      7.07225627	      0.12343416	     18.39831964	     10.93855383	     -5.67475359	     -7.08861654	      0.78224693	    -10.99861039	    -15.73206944	     -5.20631443	    -19.93383807	     22.95971975	     96.53754671	      8.37207471	    -12.29421450	    -14.47589648	     60.33985331	     96.86328825
      0.03000000	     -0.70329971	      0.17114465	      1.92614450	     -0.08812121	      0.90414687	     -0.27985838	     24.65864185	      2.65092454	     -8.55585329	      4.93901537	      0.08620208	      6.41345790	      0.43198734	     -5.68333187	    -17.95542315	      3.00089790	      0.68647700	      7.79822407	      0.13610469	     18.02873004	     10.86152462	     -5.68333187	     -6.90692715	      1.42652880	    -10.88953439	    -15.85061106	     -5.34441790	    -19.95611916	     22.79800934	     96.57852930	      8.09352681	    -12.08631282	    -14.35433501	     60.53866470	     96.94323510
      0.04000000	     -0.58152356	     -0.52070631	      2.09178947	     -0.07289503	      0.90305798	     -0.27910308	     24.45053571	      3.40547179	     -9.39263052	      6.05506629	      0.10568084	      4.52280311	     -0.61428254	     -5.70304792	    -18.41374597	      2.05254355	      0.07310505	      9.00902801	      0.15723720	     17.38808004	     10.51253813	     -5.70304792	     -6.74670991	      2.22456969	    -10.84495287	    -15.94784484	     -5.50817100	    -20.01804255	     22.49008513	     96.66519166	      7.57732262	    -11.85560659	    -14.13347146	     61.00591974	     97.12174918
      0.05000000	     -0.69317420	     -1.24736185	      2.15560444	     -0.05788707	      0.90214420	     -0.27795413	     24.08779281	      4.41230674	     -8.20115179	      6.29135171	      0.10980480	      0.78945826	     -4.16404180	     -5.78761670	    -18.43554345	      1.05157611	     -0.44868809	     10.53041363	      0.18379039	     17.00697388	     10.92024004	     -5.78761670	     -6.34428658	      3.04097344	    -11.03335772	    -15.68321913	     -5.70466524	    -19.97237032	     22.04863548	     97.05192521	      6.73347389	    -11.64188920	    -14.41582601	     61.44028384	     97.60473911
      0.06000000	     -0.61776291	     -2.03365424	      2.17061657	     -0.04272492	      0.90187371	     -0.27682283	     23.61979465	      5.41439888	     -7.52187720	      6.88311006	      0.12013293	     -1.69492998	     -6.17071981	     -5.89543403	    -18.53561562	     -0.00734572	     -0.96036247	     12.24021793	      0.21363210	     16.09134530	     10.91827186	     -5.89543403	     -6.14984107	      3.95212916	    -10.89674260	    -15.56727775	     -5.89350166	    -19.83424182	     21.82230314	     97.40686695	      6.10825672	    -11.29375800	    -14.47400785	     61.47612131	     98.11253811
      0.07000000	     -0.58367580	     -2.84558446	      2.16714902	     -0.02765109	      0.90206932	     -0.27568809	     23.22731781	      6.41970635	     -6.83111987	      7.64339202	      0.13340236	     -3.80716482	     -7.85982933	     -5.97735578	    -18.35897987	     -1.09242810	     -1.33131805	     14.31800745	      0.24989637	     14.83374196	     10.58738568	     -5.97735578	     -5.92022324	      4.89158765	    -10.77214650	    -15.35262663	     -6.05255658	    -19.92303784	     21.71979523	     97.55412352	      5.42551003	    -10.89985201	    -14.55229362	     61.38645564	     98.43763117
      0.08000000	     -0.30430759	     -3.65327075	      2.16736735	     -0.01269153	      0.90301699	     -0.27463521	     22.64185793	      7.38098828	     -6.41090500	      8.73761392	      0.15250013	     -4.34910832	     -8.41528649	     -5.99222457	    -18.21665970	     -2.18903815	     -1.57706279	     16.75416882	      0.29241541	     13.23948803	     10.12267025	     -5.99222457	     -6.02247650	      5.86110728	    -10.53763482	    -15.07717098	     -6.17902837	    -19.95951061	     21.73802789	     97.56942952	      4.83743052	    -10.47963084	    -14.50106728	     61.16719517	     98.47818309
      0.09000000	     -0.12682011	     -4.46974148	      2.06555094	      0.00204684	      0.90428483	     -0.27343734	     22.15937897	      8.42780762	     -5.62999693	      9.90667681	      0.17290413	     -4.85344961	     -9.62796931	     -6.00922239	    -17.65575091	     -3.30124717	     -1.90784548	     19.67603775	      0.34341164	     11.33150926	      9.51089804	     -6.00922239	     -6.03402208	      6.81103921	    -10.24644694	    -14.70303258	     -6.32497152	    -20.02885790	     21.81442418	     97.58251661	      4.18380663	     -9.97224755	    -14.55046192	     60.82636817	     98.51279843
      0.10000000	     -0.15984145	     -5.24795530	      1.83591665	      0.01653048	      0.90562691	     -0.27196418	     21.85194581	      9.56667603	     -4.22431563	     11.05620396	      0.19296716	     -5.72815233	    -12.09256633	     -6.04178515	    -16.59143608	     -4.35481330	     -2.14314100	     23.03089983	      0.40196503	      9.04659096	      8.58155854	     -6.04178515	     -5.83115696	      7.70812340	     -9.85198961	    -14.32030602	     -6.40477190	    -20.16923437	     21.96477062	     97.60762650	      3.44690856	     -9.44416923	    -14.77630013	     60.34465682	     98.60040884
      0.11000000	     -0.10051094	     -5.86005186	      1.61757729	      0.03054752	      0.90738914	     -0.27047848	     21.35273341	     10.59921594	     -2.54105934	     12.03626431	      0.21007244	     -7.07603766	    -15.33604538	     -6.10605140	    -15.39930786	     -5.19448767	     -1.89068893	     26.64331638	      0.46501359	      6.51029308	      7.32509497	     -6.10605140	     -5.80682678	      8.38503988	     -9.44186085	    -13.83949794	     -6.42758682	    -20.40424859	     22.26581639	     97.67845422	      2.80510315	     -8.90537973	    -14.99716772	     59.74707108	     98.84284593
      0.12000000	      0.02136308	     -6.41674910	      1.44710073	      0.04442948	      0.90932025	     -0.26902591	     20.76995474	     11.51368640	     -1.44177454	     13.07063111	      0.22812555	     -6.97949547	    -16.88634915	     -6.15240340	    -13.98258775	     -6.05413043	     -1.70498738	     30.63057749	      0.53460443	      3.81249694	      6.48469312	     -6.15240340	     -5.86761823	      8.99862467	     -9.01810295	    -13.36654384	     -6.42502257	    -20.49451585	     22.64044388	     97.76379292	      2.17007865	     -8.41313341	    -15.11514749	     59.07756715	     99.00218314
